/* XPM */
static char *ea3bb769102847aac54112acc97ef022[] = {
/* columns rows colors chars-per-pixel */
"32 32 8 1 ",
"  c #1D2B53",
". c #7E2553",
"X c #5F574F",
"o c #AB5236",
"O c #FFA300",
"+ c #FFEC27",
"@ c #C2C3C7",
"# c None",
/* pixels */
"#######XXXXXXXXXXXXXXXXXX#######",
"######X@@@@@@@@@@@@@@@@@@ ######",
"######X@@@@@@@@XXXXXXXXXX ######",
"#####O++OOO.OOo.ooo oo...  #####",
"#####O+++++o++OoOOO.OOoOo. #####",
"####O++++Oo+OOOoOoOO.OOo.o. ####",
"####O+++++oO+OOoOOoO.OOooo. ####",
"####O+++OOoO+OOoOOOO.Ooooo. ####",
"###X@@@@@@@@@@@@@@@@@@@@XXXX ###",
"###X@@@@@@@@@@@@@@@XXXXXXXXX ###",
"###X@@@@@@@@XXXXXXXXXXXXXXXX ###",
"### XXXXXXXXXXXXXXXXXXXXXXXX ###",
"##O++OoOo.oOooo.ooooo ......  ##",
"##O++++OOoO+OOOoOOOoO.oooooo. ##",
"##O++O+OOoO+OOOoOoOoO.oo .oo. ##",
"##O+++OOOoOOOOOoOoOOO.o   .o. ##",
"##O+++OOOoO+OOOoOOoOO.o   .o. ##",
"##O++OOOOoOOOOOoOOoOO.oo .oo. ##",
"##O+O+OOOoOOOOOoOOOoO.oo.ooo. ##",
"##O+OO+OOoOOOOOoOOOOO.o.oooo. ##",
"###X@@@@@@@@@@@@@@@@XXXXXXXX ###",
"###X@@@@@@@XXXXXXXXXXXXXXXXX ###",
"### XXXXXXXXXXXXXXXXXXXXXXX  ###",
"###                          ###",
"####oOOooo.oo.o.oooo .....  ####",
"####o++OOOoOOoOoOOOo.oo.oo. ####",
"####oOO+OOoOOOooOoOO.ooo.o. ####",
"#####o+OOOOoOOOoOO..ooo.o. #####",
"#####oO+OOOoOOOoOoo.oo.oo. #####",
"###### XXXXXXXX           ######",
"######                    ######",
"#######                  #######"
};
